<?xml version="1.0" encoding="utf-8" standalone="no"?>
<!DOCTYPE svg PUBLIC "-//W3C//DTD SVG 1.1//EN"
  "http://www.w3.org/Graphics/SVG/1.1/DTD/svg11.dtd">
<svg xmlns:xlink="http://www.w3.org/1999/xlink" width="641.925062pt" height="161.316pt" viewBox="0 0 641.925062 161.316" xmlns="http://www.w3.org/2000/svg" version="1.1">
 <metadata>
  <rdf:RDF xmlns:dc="http://purl.org/dc/elements/1.1/" xmlns:cc="http://creativecommons.org/ns#" xmlns:rdf="http://www.w3.org/1999/02/22-rdf-syntax-ns#">
   <cc:Work>
    <dc:type rdf:resource="http://purl.org/dc/dcmitype/StillImage"/>
    <dc:format>image/svg+xml</dc:format>
    <dc:creator>
     <cc:Agent>
      <dc:title>Matplotlib v3.11.2, https://matplotlib.org/</dc:title>
     </cc:Agent>
    </dc:creator>
   </cc:Work>
  </rdf:RDF>
 </metadata>
 <defs>
  <style type="text/css">*{stroke-linejoin: round; stroke-linecap: butt}</style>
 </defs>
 <g id="figure_1">
  <g id="patch_1">
   <path d="M 0 161.316
L 641.925062 161.316
L 641.925062 0
L 0 0
z
" style="fill: #ffffff"/>
  </g>
  <g id="axes_1">
   <g id="line2d_1">
    <path d="M 271.254937 130.60944
L 271.254937 21.8916
" clip-path="url(#p8ea033fcf3)" style="fill: none; stroke-dasharray: 1.75,1.75; stroke-dashoffset: 0; stroke: #1a1a1a; stroke-width: 0.7"/>
   </g>
   <g id="line2d_2">
    <path d="M 64.794938 86.4297
L 64.794938 48.1266
" clip-path="url(#p8ea033fcf3)" style="fill: none; stroke: #777777; stroke-width: 0.55; stroke-linecap: square"/>
   </g>
   <g id="line2d_3">
    <path d="M 271.254937 86.4297
L 271.254937 48.1266
" clip-path="url(#p8ea033fcf3)" style="fill: none; stroke: #777777; stroke-width: 0.55; stroke-linecap: square"/>
   </g>
   <g id="line2d_4">
    <path d="M 388.434937 97.9731
L 388.434937 111.6153
" clip-path="url(#p8ea033fcf3)" style="fill: none; stroke: #777777; stroke-width: 0.55; stroke-linecap: square"/>
   </g>
   <g id="line2d_5">
    <path d="M 566.994937 86.4297
L 566.994937 48.1266
" clip-path="url(#p8ea033fcf3)" style="fill: none; stroke: #777777; stroke-width: 0.55; stroke-linecap: square"/>
   </g>
   <g id="patch_2">
    <path d="M 64.794938 97.9731
L 271.254937 97.9731
L 271.254937 86.4297
L 64.794938 86.4297
z
" clip-path="url(#p8ea033fcf3)" style="fill: #e8e8e8"/>
   </g>
   <g id="patch_3">
    <path d="M 388.434937 97.9731
L 566.994937 97.9731
L 566.994937 86.4297
L 388.434937 86.4297
z
" clip-path="url(#p8ea033fcf3)" style="fill: #cfcfcf"/>
   </g>
   <g id="patch_4">
    <path d="M 55.637738 92.2014
Q 324.264529 92.2014 591.885089 92.2014
" style="fill: none; stroke: #5a5a5a; stroke-width: 0.9; stroke-linecap: round"/>
    <path d="M 588.885089 90.7014
L 591.885089 92.2014
L 588.885089 93.7014
z
" style="fill: #5a5a5a; stroke: #5a5a5a; stroke-width: 0.9; stroke-linecap: round"/>
   </g>
   <g id="text_1">
    <text style="font-size: 7.1px; font-family: 'DejaVu Sans'; text-anchor: middle; fill: #1a1a1a" x="168.024937" y="94.046013" transform="rotate(-0 168.024937 94.046013)">historical feature construction</text>
   </g>
   <g id="text_2">
    <text style="font-size: 7.1px; font-family: 'DejaVu Sans'; text-anchor: middle; fill: #1a1a1a" x="477.714938" y="94.046013" transform="rotate(-0 477.714938 94.046013)">return measurement window</text>
   </g>
   <g id="text_3">
    <text style="font-size: 6.8px; font-family: 'DejaVu Sans'; text-anchor: middle; fill: #525252" x="329.844938" y="80.073806" transform="rotate(-0 329.844938 80.073806)">no close-price fill</text>
   </g>
   <g id="PathCollection_1">
    <defs>
     <path id="mda5c81fc1c" d="M 0 2.236068
C 0.593012 2.236068 1.161816 2.000462 1.581139 1.581139
C 2.000462 1.161816 2.236068 0.593012 2.236068 0
C 2.236068 -0.593012 2.000462 -1.161816 1.581139 -1.581139
C 1.161816 -2.000462 0.593012 -2.236068 0 -2.236068
C -0.593012 -2.236068 -1.161816 -2.000462 -1.581139 -1.581139
C -2.000462 -1.161816 -2.236068 -0.593012 -2.236068 0
C -2.236068 0.593012 -2.000462 1.161816 -1.581139 1.581139
C -1.161816 2.000462 -0.593012 2.236068 0 2.236068
z
" style="stroke: #1a1a1a; stroke-width: 0.8"/>
    </defs>
    <g clip-path="url(#p8ea033fcf3)">
     <use xlink:href="#mda5c81fc1c" x="64.794938" y="92.2014" style="fill: #ffffff; stroke: #1a1a1a; stroke-width: 0.8"/>
     <use xlink:href="#mda5c81fc1c" x="271.254937" y="92.2014" style="fill: #ffffff; stroke: #1a1a1a; stroke-width: 0.8"/>
     <use xlink:href="#mda5c81fc1c" x="388.434937" y="92.2014" style="fill: #ffffff; stroke: #1a1a1a; stroke-width: 0.8"/>
     <use xlink:href="#mda5c81fc1c" x="566.994937" y="92.2014" style="fill: #ffffff; stroke: #1a1a1a; stroke-width: 0.8"/>
    </g>
   </g>
   <g id="text_4">
    <text style="font-weight: 700; font-size: 8px; font-family: 'DejaVu Sans'; text-anchor: middle; fill: #1a1a1a" x="64.794938" y="40.760437" transform="rotate(-0 64.794938 40.760437)">Prior eligible sessions</text>
   </g>
   <g id="text_5">
    <text style="font-size: 6.8px; font-family: 'DejaVu Sans'; text-anchor: middle; fill: #525252" x="64.794938" y="55.140272" transform="rotate(-0 64.794938 55.140272)">same-slot scale; causal lookbacks</text>
   </g>
   <g id="text_6">
    <text style="font-size: 6.8px; font-family: 'DejaVu Sans'; text-anchor: middle; fill: #1a1a1a" x="64.794938" y="26.281772" transform="rotate(-0 64.794938 26.281772)">history &lt; t</text>
   </g>
   <g id="text_7">
    <text style="font-weight: 700; font-size: 8px; font-family: 'DejaVu Sans'; text-anchor: middle; fill: #1a1a1a" x="271.254937" y="40.760437" transform="rotate(-0 271.254937 40.760437)">Event bar closes</text>
   </g>
   <g id="text_8">
    <text style="font-size: 6.8px; font-family: 'DejaVu Sans'; text-anchor: middle; fill: #525252" x="271.254937" y="55.140272" transform="rotate(-0 271.254937 55.140272)">features locked; forecast formed</text>
   </g>
   <g id="text_9">
    <text style="font-size: 6.8px; font-family: 'DejaVu Sans'; text-anchor: middle; fill: #1a1a1a" x="271.254937" y="26.281772" transform="rotate(-0 271.254937 26.281772)">close t</text>
   </g>
   <g id="text_10">
    <text style="font-weight: 700; font-size: 8px; font-family: 'DejaVu Sans'; text-anchor: middle; fill: #1a1a1a" x="388.434937" y="123.138337" transform="rotate(-0 388.434937 123.138337)">First tradable open</text>
   </g>
   <g id="text_11">
    <text style="font-size: 6.8px; font-family: 'DejaVu Sans'; text-anchor: middle; fill: #525252" x="388.434937" y="137.518172" transform="rotate(-0 388.434937 137.518172)">return measurement begins</text>
   </g>
   <g id="text_12">
    <text style="font-size: 6.8px; font-family: 'DejaVu Sans'; text-anchor: middle; fill: #1a1a1a" x="388.434937" y="151.684806" transform="rotate(-0 388.434937 151.684806)">open t+1</text>
   </g>
   <g id="text_13">
    <text style="font-weight: 700; font-size: 8px; font-family: 'DejaVu Sans'; text-anchor: middle; fill: #1a1a1a" x="566.994937" y="40.760437" transform="rotate(-0 566.994937 40.760437)">Outcome measured</text>
   </g>
   <g id="text_14">
    <text style="font-size: 6.8px; font-family: 'DejaVu Sans'; text-anchor: middle; fill: #525252" x="566.994937" y="55.140272" transform="rotate(-0 566.994937 55.140272)">5 min primary; 15/30/60 min secondary</text>
   </g>
   <g id="text_15">
    <text style="font-size: 6.8px; font-family: 'DejaVu Sans'; text-anchor: middle; fill: #1a1a1a" x="566.994937" y="26.281772" transform="rotate(-0 566.994937 26.281772)">open t+h</text>
   </g>
   <g id="text_16">
    <text style="font-style: italic; font-size: 6.4px; font-family: 'DejaVu Sans'; text-anchor: middle; fill: #1a1a1a" x="271.254937" y="140.03775" transform="rotate(-0 271.254937 140.03775)">information cutoff</text>
   </g>
  </g>
 </g>
 <defs>
  <clipPath id="p8ea033fcf3">
   <rect x="22.944938" y="7.2" width="602.64" height="146.916"/>
  </clipPath>
 </defs>
</svg>
